<svg width="32" height="32" viewBox="0 0 32 32" fill="none" xmlns="http://www.w3.org/2000/svg">
    <style>
        .light-mode { fill: #161513; }
        .dark-mode { fill: #F0B105; }

        @media (prefers-color-scheme: dark) {
        .light-mode { display: none; }
        }

        @media (prefers-color-scheme: light) {
        .dark-mode { display: none; }
        }
    </style>

    <path class="light-mode" d="M16 32C16 23.1635 23.1634 16 32 16L32 24C32 28.4183 28.4183 32 24 32H16Z" fill="#161513"/>
    <path class="light-mode" d="M32 9.79135e-06C32 7.87625 26.3088 14.4224 18.8145 15.7523C18.7062 15.7715 18.6461 15.6148 18.7337 15.5484C19.7458 14.7817 20.4 13.5676 20.4 12.2C20.4 9.88042 18.5196 8.00001 16.2 8C13.8804 8 12 9.88041 12 12.2C12 13.6158 12.7005 14.8679 13.7739 15.6287C13.8636 15.6923 13.8085 15.8507 13.6996 15.8351C5.953 14.7197 4.87873e-06 8.0554 7.34352e-06 0L32 9.79135e-06Z" fill="#161513"/>
    <path class="light-mode" d="M2.44784e-06 16C8.83656 16 16 23.1635 16 32L8 32C3.58172 32 -1.3519e-06 28.4183 0 24L2.44784e-06 16Z" fill="#161513"/>

    <path class="dark-mode" d="M16 32C16 23.1635 23.1634 16 32 16L32 24C32 28.4183 28.4183 32 24 32H16Z" fill="#F0B105"/>
    <path class="dark-mode" d="M32 9.79135e-06C32 7.87625 26.3088 14.4224 18.8145 15.7523C18.7062 15.7715 18.6461 15.6148 18.7337 15.5484C19.7458 14.7817 20.4 13.5676 20.4 12.2C20.4 9.88042 18.5196 8.00001 16.2 8C13.8804 8 12 9.88041 12 12.2C12 13.6158 12.7005 14.8679 13.7739 15.6287C13.8636 15.6923 13.8085 15.8507 13.6996 15.8351C5.953 14.7197 4.87873e-06 8.0554 7.34352e-06 0L32 9.79135e-06Z" fill="#F0B105"/>
    <path class="dark-mode" d="M2.44784e-06 16C8.83656 16 16 23.1635 16 32L8 32C3.58172 32 -1.3519e-06 28.4183 0 24L2.44784e-06 16Z" fill="#F0B105"/>
</svg>
